<svg xmlns="http://www.w3.org/2000/svg" width="16" height="16" viewBox="0 0 16 16">
    <g fill="#B0B5BD" fill-rule="evenodd">
        <path d="M6.872 8.2c-.103-.1-.103-.1-.205-.1-.103 0-.205 0-.205.1l-3.385 3.3-1.436-1.4c-.103-.1-.308-.2-.41-.2-.103 0-.308.1-.41.2-.103.1-.206.3-.206.4v4.4c0 .2.103.3.206.4 0 .1.205.2.307.2h4.513c.205 0 .308-.1.41-.2.205-.1.205-.3.205-.4 0-.2-.102-.3-.205-.4L4.615 13l3.282-3.2C8 9.7 8 9.7 8 9.6s0-.2-.103-.2L6.872 8.2zM15.692.7c-.102-.1-.307-.2-.41-.2H10.77c-.205 0-.307.1-.41.2-.205.1-.205.3-.205.4 0 .2.102.3.205.4L11.795 3 8.41 6.2c0 .1-.102.2-.102.2 0 .1 0 .2.102.2l1.128 1.1c.103.1.103.1.206.1.102 0 .205 0 .205-.1l3.384-3.2 1.436 1.4c.103.1.308.2.41.2.206 0 .308-.1.41-.2.103-.1.206-.3.206-.4V1.1c.102-.1 0-.3-.103-.4z"/>
    </g>
</svg>
